<svg xmlns="http://www.w3.org/2000/svg" viewBox="0 0 282 70"><path fill="#87847f" d="M21.32 32.406c-.376-3.424-3.05-5.457-6.528-5.457-3.197 0-5.829 1.561-6.687 5.074q-.021.19-.04.383zM21.853 38.88l1.874 1.417a14.2 14.2 0 0 1-.96-3.558H8v.01c.7 3.471 3.372 5.34 7.113 5.34 2.675 0 5.296-1.177 6.74-3.21M43.093 34.546c0-4.28-3.53-7.33-7.222-7.33-4.013 0-7.062 3.318-7.062 7.33s3.05 7.383 7.116 7.383c3.851 0 7.168-3.21 7.168-7.383"/><path fill="#87847f" d="M34.938 8c-10.137 0-18.964 5.59-23.581 13.852a14.3 14.3 0 0 1 3.381-.413c4.276 0 8 1.846 10.3 5.005 2.17-3.09 5.631-5.004 9.763-5.004 3.423 0 6.74 1.497 8.399 4.119V22.08h6.205v24.984H43.2v-3.906c-1.658 2.729-4.976 4.548-8.56 4.548-3.797 0-7.159-1.745-9.359-4.67-2.434 3-6.437 4.67-10.543 4.67-1.366 0-2.672-.184-3.895-.527C15.296 55.97 24.41 62 34.939 62c14.912 0 27-12.088 27-27s-12.088-27-27-27Z"/></svg>