<svg xmlns="http://www.w3.org/2000/svg" viewBox="0 0 282 70"><path d="M99.294 37.3H80.287c.683 3.414 3.308 5.252 6.984 5.252 2.625 0 5.197-1.155 6.615-3.15l4.096 3.097c-2.258 3.57-6.616 5.566-11.08 5.566-7.297 0-12.863-5.25-12.863-12.916 0-7.824 5.828-12.865 12.864-12.865 6.983 0 12.496 4.989 12.496 12.655 0 .682-.052 1.47-.105 2.362m-5.933-4.252c-.367-3.36-2.993-5.356-6.406-5.356-3.255 0-5.933 1.628-6.668 5.356zM117.669 22.914h6.615l-10.344 24.52h-5.565l-10.239-24.52h6.564l6.51 16.802zM148.276 37.3h-19.007c.683 3.414 3.308 5.252 6.984 5.252 2.625 0 5.197-1.155 6.615-3.15l4.095 3.097c-2.257 3.57-6.615 5.566-11.078 5.566-7.298 0-12.864-5.25-12.864-12.916 0-7.824 5.828-12.865 12.864-12.865 6.983 0 12.496 4.989 12.496 12.655 0 .682-.052 1.47-.105 2.362m-5.933-4.252c-.367-3.36-2.993-5.356-6.406-5.356-3.255 0-5.933 1.628-6.668 5.356zM167.963 23.125l-1.208 5.775c-1.418-.735-2.677-.892-3.57-.892-3.99 0-6.196 3.99-6.196 10.868v8.559h-6.143v-24.52h6.09v5.25c1.313-4.096 3.991-5.88 7.036-5.88 1.47 0 3.045.315 3.99.84ZM187.721 22.914h6.091v24.52h-6.09v-3.832c-1.629 2.677-4.883 4.463-8.402 4.463-6.563 0-11.813-5.303-11.813-12.916 0-7.404 5.04-12.865 11.971-12.865 3.36 0 6.615 1.47 8.243 4.043zm-.104 12.234c0-4.2-3.466-7.193-7.088-7.193-3.939 0-6.932 3.255-6.932 7.193s2.994 7.245 6.984 7.245c3.78 0 7.036-3.149 7.036-7.245M224.21 35.201c0 7.823-5.566 12.864-12.025 12.864-3.098 0-6.51-1.26-8.19-3.885v15.226h-6.091V22.914h6.09v3.256c1.681-2.625 5.199-3.886 8.14-3.886 6.457 0 12.076 5.041 12.076 12.917Zm-6.091 0c0-4.043-3.15-7.246-6.931-7.246-3.727 0-7.089 2.94-7.089 7.246 0 4.358 3.57 7.193 7.089 7.193 3.78 0 6.93-3.098 6.93-7.193M253.136 35.201c0 7.823-5.565 12.864-12.023 12.864-3.098 0-6.51-1.26-8.192-3.885v15.226h-6.09V22.914h6.09v3.256c1.681-2.625 5.2-3.886 8.14-3.886 6.458 0 12.075 5.041 12.075 12.917Zm-6.09 0c0-4.043-3.15-7.246-6.931-7.246-3.728 0-7.088 2.94-7.088 7.246 0 4.358 3.57 7.193 7.088 7.193 3.781 0 6.931-3.098 6.931-7.193M254.078 39.874h5.723c0 1.68 1.47 3.255 4.042 3.255 2.416 0 3.991-1.207 3.991-2.782 0-1.366-1.05-1.995-2.887-2.416l-3.256-.84c-5.513-1.47-6.93-4.41-6.93-7.508 0-3.833 3.78-7.299 9.135-7.299 4.358 0 9.294 2.205 9.241 7.666h-5.827c0-1.68-1.523-2.73-3.256-2.73-1.89 0-3.203 1.102-3.203 2.626 0 1.26 1.207 1.995 2.625 2.31l3.939 1.05c5.512 1.417 6.51 4.883 6.51 7.14 0 4.988-4.988 7.719-9.976 7.719-4.883 0-9.766-2.94-9.871-8.19zM21.32 32.406c-.376-3.424-3.05-5.457-6.528-5.457-3.197 0-5.829 1.561-6.687 5.074q-.021.19-.04.383zM21.853 38.88l1.874 1.417a14.2 14.2 0 0 1-.96-3.558H8v.01c.7 3.471 3.372 5.34 7.113 5.34 2.675 0 5.296-1.177 6.74-3.21M43.093 34.546c0-4.28-3.53-7.33-7.222-7.33-4.013 0-7.062 3.318-7.062 7.33s3.05 7.383 7.116 7.383c3.851 0 7.168-3.21 7.168-7.383"/><path d="M34.938 8c-10.137 0-18.964 5.59-23.581 13.852a14.3 14.3 0 0 1 3.381-.413c4.276 0 8 1.846 10.3 5.005 2.17-3.09 5.631-5.004 9.763-5.004 3.423 0 6.74 1.497 8.399 4.119V22.08h6.205v24.984H43.2v-3.906c-1.658 2.729-4.976 4.548-8.56 4.548-3.797 0-7.159-1.745-9.359-4.67-2.434 3-6.437 4.67-10.543 4.67-1.366 0-2.672-.184-3.895-.527C15.296 55.97 24.41 62 34.939 62c14.912 0 27-12.088 27-27s-12.088-27-27-27Z"/></svg>